# xmcd
#
# Track frame offsets:
#	150
#	19017
#	35972
#	55862
#	74615
#	89065
#	107635
#	130990
#	149599
#	160824
#	178655
#	194641
#
# Disc length: 2817 seconds
#
# Revision: 0
# Processed by: cddbd v1.4PL0 Copyright (c) Steve Scherf et al.
# Submitted via: EasyCDDAExtractor 4.6.9.1
#
DISCID=bb0aff0c
DTITLE=Свиридова - Игра в классики
DYEAR=1900
DGENRE=
TTITLE0=Если все не так
TTITLE1=Без него
TTITLE2=что со мной
TTITLE3=любимый мой
TTITLE4=мое сердце
TTITLE5=лето
TTITLE6=самба прошедшей любви
TTITLE7=это ведь я (римейк)
TTITLE8=манечка
TTITLE9=журчат ручьи
TTITLE10=мистер икс
TTITLE11=без него (ремикс)
EXTD=
EXTT0=
EXTT1=
EXTT2=
EXTT3=
EXTT4=
EXTT5=
EXTT6=
EXTT7=
EXTT8=
EXTT9=
EXTT10=
EXTT11=
PLAYORDER=
